<?xml version="1.0" ?>
<!DOCTYPE svg  PUBLIC '-//W3C//DTD SVG 1.1//EN'  'http://www.w3.org/Graphics/SVG/1.1/DTD/svg11.dtd'>
<!-- Uploaded to: SVG Repo, www.svgrepo.com, Generator: SVG Repo Mixer Tools -->
<svg fill="#000000" width="800px" height="800px" viewBox="0 0 64 64" style="fill-rule:evenodd;clip-rule:evenodd;stroke-linejoin:round;stroke-miterlimit:2;" version="1.1" xml:space="preserve" xmlns="http://www.w3.org/2000/svg" xmlns:serif="http://www.serif.com/" xmlns:xlink="http://www.w3.org/1999/xlink">
<g transform="matrix(1,0,0,1,-288,-96)">
<g id="Icon">
<path d="M329.787,135.669C329.234,135.669 328.787,136.117 328.787,136.669L328.787,153.773C328.787,155.271 330.001,156.485 331.499,156.485L331.501,156.485C332.999,156.485 334.213,155.271 334.213,153.773C334.213,149.134 334.213,136.669 334.213,136.669C334.213,136.117 333.766,135.669 333.213,135.669L329.787,135.669Z" style="fill:rgb(181,129,49);"/>
<path d="M333.213,135.669L331.183,135.669C331.736,135.669 332.183,136.117 332.183,136.669C332.183,136.669 332.183,149.134 332.183,153.773C332.183,154.912 331.481,155.887 330.485,156.289C330.798,156.415 331.14,156.485 331.499,156.485L331.501,156.485C332.999,156.485 334.213,155.271 334.213,153.773C334.213,149.134 334.213,136.669 334.213,136.669C334.213,136.117 333.766,135.669 333.213,135.669Z" style="fill:rgb(154,110,42);"/>
<path d="M306.787,126.751C306.234,126.751 305.787,127.198 305.787,127.751L305.787,144.854C305.787,146.352 307.001,147.566 308.499,147.566L308.501,147.566C309.999,147.566 311.213,146.352 311.213,144.854C311.213,140.215 311.213,127.751 311.213,127.751C311.213,127.198 310.766,126.751 310.213,126.751L306.787,126.751Z" style="fill:rgb(181,129,49);"/>
<path d="M310.213,126.751L307.671,126.751C308.224,126.751 308.671,127.198 308.671,127.751C308.671,127.751 308.671,140.215 308.671,144.854C308.671,145.893 308.087,146.796 307.229,147.251C307.608,147.452 308.04,147.566 308.499,147.566L308.501,147.566C309.999,147.566 311.213,146.352 311.213,144.854C311.213,140.215 311.213,127.751 311.213,127.751C311.213,127.198 310.766,126.751 310.213,126.751Z" style="fill:rgb(154,110,42);"/>
<path d="M317.99,109.424C317.99,107.037 317.042,104.748 315.354,103.06C313.667,101.373 311.377,100.424 308.99,100.424C308.664,100.424 308.336,100.424 308.01,100.424C305.623,100.424 303.333,101.373 301.646,103.06C299.958,104.748 299.01,107.037 299.01,109.424C299.01,115.738 299.01,123.936 299.01,126.751C299.01,127.281 299.22,127.79 299.595,128.165C299.97,128.54 300.479,128.751 301.01,128.751L315.99,128.751C316.521,128.751 317.03,128.54 317.405,128.165C317.78,127.79 317.99,127.281 317.99,126.751C317.99,123.936 317.99,115.738 317.99,109.424Z" style="fill:rgb(245,240,229);"/>
<path d="M307.492,100.439C309.691,100.566 311.774,101.495 313.339,103.06C315.027,104.748 315.975,107.037 315.975,109.424C315.975,115.738 315.975,123.936 315.975,126.751C315.975,127.281 315.764,127.79 315.389,128.165C315.014,128.54 314.506,128.751 313.975,128.751L315.99,128.751C316.521,128.751 317.03,128.54 317.405,128.165C317.78,127.79 317.99,127.281 317.99,126.751C317.99,123.936 317.99,115.738 317.99,109.424C317.99,107.037 317.042,104.748 315.354,103.06C313.667,101.373 311.377,100.424 308.99,100.424C308.664,100.424 308.336,100.424 308.01,100.424C307.837,100.424 307.664,100.429 307.492,100.439Z" style="fill:rgb(234,222,199);"/>
<path d="M299.01,114.055L307.506,114.055C307.87,114.055 308.218,114.199 308.475,114.456C308.732,114.713 308.876,115.062 308.876,115.425C308.876,115.804 308.876,116.217 308.876,116.603C308.876,117.431 309.548,118.103 310.376,118.103C310.377,118.103 310.378,118.103 310.378,118.103C311.206,118.103 311.876,117.432 311.876,116.605C311.876,116.218 311.876,115.805 311.876,115.425C311.876,115.062 312.021,114.713 312.277,114.456C312.534,114.199 312.883,114.055 313.246,114.055L317.99,114.055L317.99,109.424C317.99,107.037 317.042,104.748 315.354,103.06C313.667,101.373 311.377,100.424 308.99,100.424C308.664,100.424 308.336,100.424 308.01,100.424C305.623,100.424 303.333,101.373 301.646,103.06C299.958,104.748 299.01,107.037 299.01,109.424L299.01,114.055Z" style="fill:rgb(99,48,1);"/>
<path d="M307.436,100.443C309.613,100.582 311.674,101.508 313.226,103.06C314.914,104.748 315.862,107.037 315.862,109.424L315.862,114.055L317.99,114.055L317.99,109.424C317.99,107.037 317.042,104.748 315.354,103.06C313.667,101.373 311.377,100.424 308.99,100.424C308.664,100.424 308.336,100.424 308.01,100.424C307.818,100.424 307.626,100.431 307.436,100.443Z" style="fill:rgb(74,36,1);"/>
<path d="M340.99,118.343C340.99,115.956 340.042,113.667 338.354,111.979C336.667,110.291 334.377,109.343 331.99,109.343C331.664,109.343 331.336,109.343 331.01,109.343C328.623,109.343 326.333,110.291 324.646,111.979C322.958,113.667 322.01,115.956 322.01,118.343C322.01,124.657 322.01,132.854 322.01,135.669C322.01,136.2 322.22,136.708 322.595,137.083C322.97,137.458 323.479,137.669 324.01,137.669L338.99,137.669C339.521,137.669 340.03,137.458 340.405,137.083C340.78,136.708 340.99,136.2 340.99,135.669C340.99,132.854 340.99,124.657 340.99,118.343Z" style="fill:rgb(245,240,229);"/>
<path d="M330.679,109.349C332.946,109.432 335.103,110.369 336.713,111.979C338.401,113.667 339.349,115.956 339.349,118.343C339.349,124.657 339.349,132.854 339.349,135.669C339.349,136.2 339.138,136.708 338.763,137.083C338.388,137.458 337.879,137.669 337.349,137.669L338.99,137.669C339.521,137.669 340.03,137.458 340.405,137.083C340.78,136.708 340.99,136.2 340.99,135.669C340.99,132.854 340.99,124.657 340.99,118.343C340.99,115.956 340.042,113.667 338.354,111.979C336.667,110.291 334.377,109.343 331.99,109.343C331.664,109.343 331.336,109.343 331.01,109.343C330.899,109.343 330.789,109.345 330.679,109.349Z" style="fill:rgb(234,222,199);"/>
<path d="M322.01,126.506L340.99,126.506L340.99,118.343C340.99,115.956 340.042,113.667 338.354,111.979C336.667,110.291 334.377,109.343 331.99,109.343C331.664,109.343 331.336,109.343 331.01,109.343C328.623,109.343 326.333,110.291 324.646,111.979C322.958,113.667 322.01,115.956 322.01,118.343L322.01,126.506Z" style="fill:rgb(255,252,92);"/>
<path d="M330.609,109.352C332.851,109.452 334.98,110.386 336.573,111.979C338.261,113.667 339.209,115.956 339.209,118.343L339.209,126.506L340.99,126.506L340.99,118.343C340.99,115.956 340.042,113.667 338.354,111.979C336.667,110.291 334.377,109.343 331.99,109.343C331.664,109.343 331.336,109.343 331.01,109.343C330.876,109.343 330.742,109.346 330.609,109.352Z" style="fill:rgb(254,250,34);"/>
<g transform="matrix(0.709915,0.704288,-0.704288,0.709915,174.447,-331.802)">
<path d="M423.5,209.198L423.5,210.103C423.5,210.655 423.948,211.103 424.5,211.103C425.052,211.103 425.5,210.655 425.5,210.103L425.5,209.198C425.5,208.646 425.052,208.198 424.5,208.198C423.948,208.198 423.5,208.646 423.5,209.198Z" style="fill:rgb(99,48,1);"/>
</g>
<g transform="matrix(0.730326,-0.265132,-0.265132,0.739333,75.9285,73.5082)">
<path d="M429.334,210.283L430.789,211.713C431.627,212.537 432.621,212.886 433.008,212.493C433.395,212.099 433.029,211.111 432.191,210.287L430.737,208.857C429.899,208.033 428.904,207.684 428.517,208.078C428.13,208.471 428.496,209.46 429.334,210.283Z" style="fill:rgb(99,48,1);"/>
</g>
<g transform="matrix(1,0,0,1,-100.501,-94.5152)">
<path d="M432.545,212.109L431.566,212.609C431.074,212.86 430.879,213.463 431.13,213.955C431.381,214.446 431.984,214.642 432.475,214.391L433.455,213.891C433.946,213.64 434.142,213.037 433.891,212.545C433.64,212.054 433.037,211.858 432.545,212.109Z" style="fill:rgb(99,48,1);"/>
</g>
<g transform="matrix(0.652588,0.230241,0.230241,0.847412,3.866,-161.693)">
<path d="M433.448,213.858L431.958,214.845C431.038,215.455 430.538,216.323 430.843,216.783C431.148,217.243 432.143,217.122 433.063,216.512L434.552,215.525C435.473,214.915 435.972,214.046 435.667,213.586C435.362,213.126 434.368,213.248 433.448,213.858Z" style="fill:rgb(99,48,1);"/>
</g>
<g transform="matrix(1,0,0,1,-101.132,-92.8732)">
<path d="M428.603,215.879L429.399,216.478C429.84,216.809 430.468,216.721 430.799,216.279C431.131,215.838 431.042,215.211 430.601,214.879L429.805,214.281C429.363,213.949 428.736,214.038 428.404,214.479C428.073,214.92 428.162,215.548 428.603,215.879Z" style="fill:rgb(99,48,1);"/>
</g>
</g>
</g>
</svg>